<svg id="Layer_1" data-name="Layer 1" xmlns="http://www.w3.org/2000/svg" viewBox="0 0 64 56"><defs><style>.cls-1{fill:#6d6d6d;}</style></defs><title>boldcourse</title><g id="Layer_2" data-name="Layer 2"><g id="Layer_1-2" data-name="Layer 1-2"><path class="cls-1" d="M58.59,33.89c-1-.66-2.57-4.73-2.59-9.3a3,3,0,0,1,0-5.17V11.73l-23.26,6a7.08,7.08,0,0,1-3.6,0L1.19,10.52A1.5,1.5,0,0,1,0,9.11,1.51,1.51,0,0,1,1.18,7.7L29.1.24a7.17,7.17,0,0,1,3.68,0l28,7.42A1.5,1.5,0,0,1,62,9.07a1.49,1.49,0,0,1-1.19,1.41L59,11v8.47a3,3,0,0,1,1.08,4.1A2.94,2.94,0,0,1,59,24.65a6.23,6.23,0,0,0,4.13,5.06c3.24.93-3.31,5.06-4.52,4.23M49.46,25a21,21,0,1,1-36.92,0c4.28,3.24,12.48,4.56,16.34,5L27.6,32.15l-2.17,1.3-2.83.48-1.93-.52-.25,1.41,2.49,1.66.24,1.44,4.19,1.37,1.79,2.81,2.43,1.09L32,44.31l-.91,1.2-.56,1.88-2.29,1.1.18,1.38-2.08,1.66a17,17,0,0,0,14.44-2.38l-1.06-1.28-.21-3,.62-3.09-1.61-2.23-.3-1.84L36.3,36.59,36,35.08l.33-1.61,1.5-1.94,2.86-.37,1.05-.94,1.14.15,1.38,1,1.81-.94.12-1.34-2.06-1.42A19.45,19.45,0,0,0,49.46,25ZM22.77,46.59l.89-1-2.54-2.31.17-3.51-.63-1.19-1.76-.72L15.52,35.3,14,32.3A17.48,17.48,0,0,0,13.8,35a17.2,17.2,0,0,0,9.84,15.52l-.3-.66ZM31,28c2.41,0,19-2.38,19-7.71V15.56L33.29,19.9a9.63,9.63,0,0,1-4.71,0L12,15.59v4.7C12,25.62,28.63,28,31,28Z"/></g></g></svg>