<svg id="Layer_1" data-name="Layer 1" xmlns="http://www.w3.org/2000/svg" viewBox="0 0 512 512"><defs><style>.cls-1{fill:#fff;}</style></defs><title>books</title><g id="Layer_2" data-name="Layer 2"><g id="Layer_1-2" data-name="Layer 1-2"><path class="cls-1" d="M163.74,90.86H111a12.43,12.43,0,0,0-12.48,12.39V412.42A12.48,12.48,0,0,0,111,424.9h53a12.48,12.48,0,0,0,12.48-12.48V103.29A12.44,12.44,0,0,0,164,90.86h-.29m-5.11,97.39H116.08a5.5,5.5,0,0,1,0-11h42.55a5.5,5.5,0,0,1,0,11Zm0-26.26H116.08a5.5,5.5,0,0,1,0-11h42.55a5.5,5.5,0,0,1,0,11Zm0-26.22H116.08a5.49,5.49,0,1,1,0-11h42.56a5.49,5.49,0,1,1,0,11Z"/><path class="cls-1" d="M280.59,90.86H207.78a12.38,12.38,0,0,0-12.43,12.34V412.42a12.44,12.44,0,0,0,12.38,12.48h72.86a12.48,12.48,0,0,0,12.48-12.48V103.29a12.43,12.43,0,0,0-12.43-12.43h-.05M273,188.25H215.2a5.5,5.5,0,0,1,0-11H273a5.5,5.5,0,0,1,0,11ZM273,162H215.2a5.5,5.5,0,0,1,0-11H273a5.5,5.5,0,0,1,0,11Zm0-26.22H215.2a5.49,5.49,0,1,1,0-11H273a5.49,5.49,0,1,1,0,11Z"/><path class="cls-1" d="M413.44,405.72,381.69,98.23A12.54,12.54,0,0,0,368,87.05l-52.67,5.5a12.51,12.51,0,0,0-11,13.78L336.1,413.81A12.54,12.54,0,0,0,349.79,425l52.52-5.4a12.48,12.48,0,0,0,11.13-13.69"/></g></g></svg>