<svg id="Layer_1" data-name="Layer 1" xmlns="http://www.w3.org/2000/svg" viewBox="0 0 269.12 98.04"><defs><style>.cls-1{fill:#154396;}.cls-2{fill:#faa21b;}</style></defs><title>brescia_logo</title><path class="cls-1" d="M210.32,63c3.4,0,6.15-.73,6.15-6V34.94c0-4.86-3.72-5.1-6.15-5.26V28.3l12.46-1.94V57c0,5.26,2.76,6,6.15,6v1.37H210.32Zm4.45-48.22a4.62,4.62,0,1,1,4.62,4.61A4.56,4.56,0,0,1,214.77,14.8Z"/><path class="cls-1" d="M262.9,64.48a23.41,23.41,0,0,1-5.9.73c-4.7,0-6.07-2.43-6.07-5.91h-.17a12.9,12.9,0,0,1-11.49,5.91c-5.58,0-9.71-3.89-9.71-9.15,0-11.73,15.21-11.73,21.37-12.3V40.68c0-5.66-.08-11.65-6.88-11.65-5,0-5.67,2.1-5.67,4.69,0,3.32-2.43,4.21-3.8,4.21a3.64,3.64,0,0,1-3.89-3.64c0-5.26,7.85-7.93,13.44-7.93,11.09,0,13.11,5.34,13.11,12.87V59.3c0,2.83,1,3.8,3.48,3.8a10.16,10.16,0,0,0,2.18-.32Zm-12-18.05c-3.81.08-14.17.81-14.17,8.34,0,4.2,2.75,7,5.51,7,5.26,0,8.66-5.1,8.66-10.61Z"/><path class="cls-1" d="M197.05,65.26a18.1,18.1,0,0,1-15.27-8.4,20.11,20.11,0,0,1-3.23-11.12c0-10.85,7.89-19.17,17.39-19.17a14.57,14.57,0,0,1,10.44,4.33l-2.21,2.2a9.34,9.34,0,0,0-6-2.46c-6.36,0-12,6.54-12,14.94,0,8.9,6,15.43,12.72,15.43,3.47,0,6.44-1.52,9.15-4.66l2.55,2.37C206.8,63,202.14,65.26,197.05,65.26Z"/><path class="cls-1" d="M52.39,62.78c4.37,0,7-.57,7-6.64V18.75c0-6.07-2.67-6.64-7-6.64V10.49H72.3c6.23,0,19.5,0,19.5,13,0,8.18-5.74,10.93-9.55,12.14v.17c5.67,1,12.3,4.29,12.3,14.16,0,13.35-12.86,14.48-21,14.48H52.39ZM66.63,34.37h3.72c4.7,0,13.84-.08,13.84-10.36,0-8.17-5.34-10.36-11.89-10.36-5.1,0-5.67.73-5.67,6.8Zm0,20.07c0,6.07.08,6.8,6.88,6.8C80.15,61.24,87,58.57,87,49.91c0-11.65-9.72-12.38-16.6-12.38H66.63Z"/><path class="cls-1" d="M94.27,63c3.4,0,6.15-.73,6.15-6V34.94c0-4.86-3.72-5.1-6.15-5.26V28.3l12.46-1.94V35h.16c1.54-4.05,4.38-8.66,10.53-8.66a3.91,3.91,0,0,1,4,3.72,3.67,3.67,0,0,1-3.88,3.8c-2.43,0-3.48-1.94-4.62-1.94-1.45,0-6.23,3.24-6.23,12.87V57c0,5.26,2.75,6,6.15,6v1.37H94.27Z"/><path class="cls-1" d="M135.28,65.1c-9,0-15.89-5.79-15.89-12.08,0-5,3.07-8.67,9.13-10.72-3.78-1.44-5.7-3.91-5.7-7.06,0-4.76,5.17-8.93,12.28-8.93,4.57,0,8.51,1.53,11.05,4.34L144,32.86a10.14,10.14,0,0,0-6.49-2.55c-4.21,0-7.28,2.38-7.28,5.1,0,3,2.8,5.36,6.93,5.36h3.68v3.41h-4c-5.35,0-9.73,4-9.73,8.16,0,4.59,4.56,8.59,10.44,8.59a15.19,15.19,0,0,0,10.26-4.76c.46-.51,1.58-1.83,1.58-1.83L151,55.5l-.63,3A19.42,19.42,0,0,1,135.28,65.1Z"/><path class="cls-1" d="M146.32,59.24a38.37,38.37,0,0,0,4,2.91,21.76,21.76,0,0,0,10.84,3.06c9.27,0,15.37-4,15.37-10.93,0-6.07-3.51-8.34-7.77-10.6-4.67-2.59-11.85-4.94-11.85-9.55,0-3.81,3.84-5.1,6.92-5.1,5.93,0,7.85,4.53,8.52,7.2h2.09l-.59-8.5a39.85,39.85,0,0,0-9.6-1.37c-6.84,0-13.85,2.51-13.85,10,0,3.31,1,5.33,4.34,7.68C159.34,47.4,170,50.23,170,56c0,2.75-2.84,6.56-8.26,6.56-7,0-9-4.94-10-8.21h-2.42A19.15,19.15,0,0,1,146.32,59.24Z"/><path class="cls-2" d="M98.36,12.65v5.59c0,.46,0,.49.08.65a.53.53,0,0,0,.52.28.57.57,0,0,0,.52-.28c.06-.14.07-.18.07-.65V12.65h.74v5.53a2.3,2.3,0,0,1-.14,1.05,1.45,1.45,0,0,1-2.39,0,2.17,2.17,0,0,1-.15-1.05V12.65Z"/><path class="cls-2" d="M106.88,19.8l-1.1-3.7a13.91,13.91,0,0,1-.42-1.57v.12l0,.53c0,.14,0,.32,0,.56V19.8h-.65V12.65h.65l1.07,3.81.13.42c0,.08.07.24.13.49s.11.42.13.5,0,.09,0,.15v-.14l0-.53c0-.09,0-.26,0-.51s0-.29,0-.36V12.65h.66V19.8Z"/><path class="cls-2" d="M112,19.8V12.65h.76V19.8Z"/><path class="cls-2" d="M117.93,19.8l-1.12-7.15h.77l.51,3.73c0,.07,0,.21,0,.43s0,.3.08.68c0,.18,0,.4.08.67v0q0-.24.06-.66c.07-.54.11-.91.13-1.06l.54-3.78h.72l-1.14,7.15Z"/><path class="cls-2" d="M123.81,19.8V12.66h2.31v.68h-1.56v2.38h1.21v.69h-1.21v2.72h1.65v.67Z"/><path class="cls-2" d="M132.32,19.8l-.75-3.14h-.47V19.8h-.75V12.65h1c.68,0,.85.06,1.13.35a2.28,2.28,0,0,1,.48,1.68c0,1-.2,1.57-.7,1.82l.83,3.3Zm-.87-3.8c.58,0,.77-.34.77-1.32a1.91,1.91,0,0,0-.25-1.17c-.1-.14-.23-.18-.56-.18h-.31V16Z"/><path class="cls-2" d="M136.72,18.15c.06,1.13.56,1.75,1.43,1.75s1.56-.78,1.56-2.1a2.4,2.4,0,0,0-1-2.07l-.39-.29a1.6,1.6,0,0,1-.67-1.34c0-.53.22-.84.6-.84s.58.28.68.93v.07l.72-.13c-.09-1-.58-1.54-1.38-1.54s-1.37.64-1.37,1.69a2.14,2.14,0,0,0,.38,1.27c.23.35.31.4.92.84a1.46,1.46,0,0,1,.69.9,2.29,2.29,0,0,1,.08.64c0,.81-.27,1.28-.75,1.28s-.74-.46-.75-1.16Z"/><path class="cls-2" d="M143.79,19.8V12.65h.76V19.8Z"/><path class="cls-2" d="M149.31,19.8V13.33h-.9v-.68H151v.68h-.9V19.8Z"/><path class="cls-2" d="M155.86,19.8v-3l-1.15-4.12h.77l.78,3.23.79-3.23h.74l-1.18,4.12v3Z"/><path class="cls-2" d="M167.49,18.19c0,1.1-.52,1.71-1.37,1.71-1.1,0-1.51-1-1.51-3.68s.41-3.63,1.54-3.63c.85,0,1.37.53,1.37,1.71v.07l-.74.13v-.08c-.07-.84-.22-1.11-.63-1.11a.55.55,0,0,0-.52.41,8.88,8.88,0,0,0-.22,2.47c0,2.28.18,3,.77,3,.42,0,.6-.33.62-1.13Z"/><path class="cls-2" d="M171.64,14c.16-.92.64-1.4,1.37-1.4,1.14,0,1.53.94,1.53,3.58a13.13,13.13,0,0,1-.15,2.34c-.15.93-.63,1.4-1.38,1.4-1.14,0-1.52-.92-1.52-3.65A12.49,12.49,0,0,1,171.64,14Zm.72,4.24c.07.67.29,1,.68,1s.56-.3.64-1a19.85,19.85,0,0,0,.09-2,18.48,18.48,0,0,0-.09-2c-.08-.63-.28-.93-.67-.93a.5.5,0,0,0-.47.28,1.85,1.85,0,0,0-.18.71,18.22,18.22,0,0,0-.09,1.9A19.16,19.16,0,0,0,172.36,18.21Z"/><path class="cls-2" d="M178.91,19.8V12.65h.74v6.48h1.45v.67Z"/><path class="cls-2" d="M185.08,19.8V12.65h.75v6.48h1.45v.67Z"/><path class="cls-2" d="M191.25,19.8V12.66h2.32v.68H192v2.38h1.21v.69H192v2.72h1.64v.67Z"/><path class="cls-2" d="M200.19,19.83l-.14-.6a.94.94,0,0,1-.94.63,1.14,1.14,0,0,1-1.07-.65,6.56,6.56,0,0,1-.4-2.93,13.89,13.89,0,0,1,.11-2c.14-1.19.59-1.74,1.44-1.74s1.3.63,1.36,1.71l-.7.14c-.1-.84-.27-1.14-.66-1.14-.61,0-.76.59-.76,2.85,0,.87,0,1.21.06,1.81.06.81.3,1.19.74,1.19s.71-.46.71-1.46v-.81h-.7v-.67h1.41v3.62Z"/><path class="cls-2" d="M205.06,19.8V12.66h2.32v.68h-1.57v2.38H207v.69h-1.21v2.72h1.65v.67Z"/><path class="cls-1" d="M38.19,45.77c-.18-11-11.74-10-11.74-10-10.35,1.1-13,5.88-13.39,6.79l-.06.15s0-.06.06-.15c2.49-5.81-2.13-7.43-2.13-7.43a16.68,16.68,0,0,0,10.61-3.58c8.31-6,7.12-10.7,6.71-12.26C26.78,13.67,20.12,10,14.83,10H6.9V64.35H27.62A21.88,21.88,0,0,0,38.19,45.77Z"/><path class="cls-2" d="M25.28,10c5.37,1.5,8.33,4.95,9,7,2.75,7.7-6.24,15-6.24,15C44,29.8,46,41.2,46.1,42.05c.95,9.84-6.51,18.24-11.42,22.3H48.33V10ZM40.2,28.15S37,33,33,28.64c0,0,4-3.11,4.72-4,0,0,3.24-2.84,5.38,2.84C43.14,27.47,41.21,25.85,40.2,28.15Z"/><path class="cls-2" d="M256.65,87.48A1.27,1.27,0,0,0,258,88.77a1.66,1.66,0,0,0,1.81-1.71,1.2,1.2,0,0,0-1.26-1.26,1.71,1.71,0,0,0-1.91,1.68m-9.9-.1c-1.6,0-1.72-2.14-1.72-2.67,0-3.45,2.25-7,5.05-7A1.74,1.74,0,0,1,252,79.58c0,3.43-3.11,7.8-5.24,7.8m3.58.65c-.1.46.07.76.72.74l3-1c.39-.14.73-.21.7-.51l-.09-.51c-.1-.27-.68,0-1.19.07s-.65-.23-.48-1.08l2.68-13.47c.1-.48,0-.71-.46-.71h-2.63c-.36,0-.41.07-.49.28l-.14.41c-.07.3.72.3,1.06.69.15.14.32.3.2.92l-.68,3.32a4.06,4.06,0,0,0-2.32-.49c-4.25,0-7.47,4-7.47,7.69,0,3,1.79,4.38,3.48,4.38s3.77-1.66,4.69-3.27l.05,0Zm-16.74-.65c-1.6,0-1.72-2.14-1.72-2.67,0-3.45,2.25-7,5-7a1.74,1.74,0,0,1,1.91,1.89c0,3.43-3.12,7.8-5.24,7.8m3.6.65c-.12.46.05.74.7.74l3-1c.39-.14.73-.21.7-.51l-.09-.51c-.1-.27-.66,0-1.19.07s-.63-.23-.46-1.08l1.31-6.49c.24-1.5-.32-1.52-1-1.94a7.73,7.73,0,0,0-3-.62c-4.49,0-7.54,4.15-7.54,7.69,0,3,1.79,4.38,3.48,4.38s3.77-1.66,4.69-3.27l.05,0Zm-15.91-6.26c.61-2,1.89-4,4.21-4a1.45,1.45,0,0,1,1.52,1.5c0,1.72-3,2.53-5.73,2.53m6.17,5.08c.07-.39-.44-.41-1-.11a4.71,4.71,0,0,1-2.33.58c-2.34,0-3.43-2.24-2.94-4.45,4.2,0,7.78-1.4,7.78-3.68,0-.88-.56-2.49-3.29-2.49a7.12,7.12,0,0,0-6.91,7.09c0,3,1.79,5,4.52,5a8.28,8.28,0,0,0,3.43-.76.81.81,0,0,0,.61-.63ZM208,86.21a1.54,1.54,0,0,1-1.36,1.24.7.7,0,0,0-.48.3l-.19.37c-.17.3,0,.37.21.37h9.67c.58,0,1-.21,1.14-.6l.41-2.07a.15.15,0,0,0-.09-.21l-.54-.21c-.31-.09-1,2-3.12,2h-2.12c-1.19,0-1.5-.41-1.12-2.35l2-10.45a1.55,1.55,0,0,1,1.36-1.24.63.63,0,0,0,.48-.3l.2-.37c.17-.3,0-.37-.22-.37h-4.64a.42.42,0,0,0-.39.19l-.29.41c-.12.19-.1.35.17.39,1,.23,1.35.35,1.16,1.29ZM196.17,78c2,0,2.49,1.86,2.49,3.11,0,2-1.19,6.42-4.3,6.42-1.7,0-2.49-1.8-2.49-3.64,0-3.75,2.68-5.89,4.3-5.89m.53-1.27a7.4,7.4,0,0,0-7.15,7.65,4.27,4.27,0,0,0,4.54,4.42c4.33,0,6.89-4.38,6.89-7.53,0-2.51-1.55-4.54-4.28-4.54m-6.45.28H187.3l.65-3.27c.05-.32-.56-.32-.92-.07l-1.4,1-.46,2.3h-1.84l-.19,1H185l-1.47,7.41c-.44,2.21.21,3.41,1.74,3.41a5,5,0,0,0,2.39-.83l.34-.21c.19-.09.29-.18.24-.3l-.27-.55c0-.09-.14,0-.24,0a3,3,0,0,1-1.4.32c-.72,0-.92-.64-.7-1.73L187.15,78h2.52l.53-.49Zm-22,4.79c.61-2,1.89-4,4.21-4a1.45,1.45,0,0,1,1.52,1.5c0,1.72-3,2.53-5.73,2.53m6.17,5.08c.07-.39-.44-.41-1-.11a4.7,4.7,0,0,1-2.32.58c-2.35,0-3.44-2.24-2.95-4.45,4.2,0,7.78-1.4,7.78-3.68,0-.88-.55-2.49-3.29-2.49a7.12,7.12,0,0,0-6.91,7.09c0,3,1.79,5,4.52,5a8.24,8.24,0,0,0,3.43-.76.81.81,0,0,0,.61-.63Zm-9.29-9.27c.12-.28-.17-.51-.46-.58a8.53,8.53,0,0,0-2.23-.3c-1.66,0-4,.85-4.37,2.63s.84,2.71,1.81,3.54,2.23,1.73,2,3.13a2.15,2.15,0,0,1-2.15,1.78,2.21,2.21,0,0,1-1.89-1l-.77-1.2c-.1-.14-.22-.14-.37,0L156,86c-.17.11-.17.25-.12.46L156.3,88a5,5,0,0,0,2.95.79c1.5,0,4.21-.74,4.76-3,.46-1.8-.6-3.06-2.27-4.44-.94-.79-1.81-1.41-1.62-2.51a1.77,1.77,0,0,1,1.79-1.18c1.11,0,1.59.44,1.74,1.31a.31.31,0,0,0,.34.28h.38c.29,0,.27-.37.53-1ZM150.71,78c2,0,2.49,1.86,2.49,3.11,0,2-1.18,6.42-4.3,6.42-1.69,0-2.49-1.8-2.49-3.64,0-3.75,2.68-5.89,4.3-5.89m.53-1.27a7.4,7.4,0,0,0-7.15,7.65,4.27,4.27,0,0,0,4.54,4.42c4.33,0,6.89-4.38,6.89-7.53,0-2.51-1.55-4.54-4.28-4.54m-13,1.27c2,0,2.49,1.86,2.49,3.11,0,2-1.19,6.42-4.3,6.42-1.7,0-2.49-1.8-2.49-3.64,0-3.75,2.68-5.89,4.3-5.89m.53-1.27a7.4,7.4,0,0,0-7.15,7.65,4.27,4.27,0,0,0,4.54,4.42c4.33,0,6.89-4.38,6.89-7.53,0-2.51-1.55-4.54-4.28-4.54M118.33,88.49h2.15l.75-3.78c.38-2,.72-3.56,2.2-5.15a3.72,3.72,0,0,1,2.51-1.41c1.26,0,1.67.65,1.57,2a12.51,12.51,0,0,1-.24,1.68L126,88c-.07.46.08.76.58.74l3.1-1c.39-.14.72-.21.7-.51l-.1-.51c-.12-.27-.67,0-1.18.07s-.66-.23-.49-1.08l1.07-5.09a6.79,6.79,0,0,0,.19-1.77c-.07-1.47-.85-2.19-2.46-2.19a6.64,6.64,0,0,0-5.11,2.76l0,0L123.79,72c.1-.48-.19-.46-.44-.46h-2.63c-.36,0-.46.07-.51.28l-.12.41c-.07.3.7.32,1.07.69.14.14.24.3.12.92Zm-2.1-1.89c.24-.32-.46-.8-.68-.6a6.39,6.39,0,0,1-4.08,1.57c-3.34,0-5.64-2.86-5.64-6.22s2.28-8.19,7.55-8.19c4.11,0,3.91,3,4.32,2.71l.46-.34c.07-.07.15-.14.15-.21l.34-1.61c0-.16.09-.35-.13-.46a9.55,9.55,0,0,0-4.85-1.15c-7.06,0-10.2,5.39-10.2,9.53,0,3.41,2.15,7.14,7.88,7.14a10.1,10.1,0,0,0,3.5-.53,1.77,1.77,0,0,0,.53-.49Z"/></svg>