<svg id="Layer_1" data-name="Layer 1" xmlns="http://www.w3.org/2000/svg" viewBox="0 0 75.53 65.8"><defs><style>.cls-1{fill:#faa21a;}</style></defs><title>cathaff2</title><g id="Layer_2" data-name="Layer 2"><g id="Layer_1-2" data-name="Layer 1-2"><path class="cls-1" d="M72.34,61.64V46.91L55.39,30l-3.57,3.57V19.29H40.57V11.35h5.74V5.74H40.57V0H35V5.74H29.21v5.61H35v7.94H23.71V33.54L20.14,30,3.19,46.91V61.64H0V65.8H75.53V61.64H72.34M62,51.07a2.61,2.61,0,1,1,5.22,0v5.37H62Zm-53.69,0a2.61,2.61,0,0,1,5.22,0v5.37H8.31Zm10.33-5.2L37.76,26.8,56.89,45.87V61.64H53.68V47.91L37.76,32,21.85,47.91V61.64H18.64ZM42.16,61.64H33.37V52.91a4.4,4.4,0,0,1,8.79-.42,2.94,2.94,0,0,1,0,.42Z"/></g></g></svg>