<svg id="Layer_1" data-name="Layer 1" xmlns="http://www.w3.org/2000/svg" viewBox="0 0 60 54"><defs><style>.cls-1{fill:#faa21a;}</style></defs><title>complearn2</title><g id="Layer_2" data-name="Layer 2"><g id="Layer_1-2" data-name="Layer 1-2"><path class="cls-1" d="M22,14.51a.51.51,0,0,1,.51-.51h25a.51.51,0,0,1,.51.51v1a.51.51,0,0,1-.51.51h-25a.51.51,0,0,1-.51-.51h0v-1M13,28a7,7,0,1,0-7-7A7,7,0,0,0,13,28Zm9.51-16h25a.51.51,0,0,0,.51-.51v-1a.51.51,0,0,0-.51-.51h-25a.51.51,0,0,0-.51.51h0v1A.51.51,0,0,0,22.51,12ZM58.25,42H58V5a5,5,0,0,0-5-5H0V6H51a1,1,0,0,1,1,1V42H48V40a2,2,0,0,0-2-2H40a2,2,0,0,0-2,2v2H24v6H58.25A1.75,1.75,0,0,0,60,46.25v-2.5A1.75,1.75,0,0,0,58.25,42ZM28.39,39A3.59,3.59,0,0,0,30,38.63l8-4.06a3.46,3.46,0,0,0,1.54-4.65h0c0-.08-.09-.15-.14-.23L45.93,19a.43.43,0,0,0-.07-.56l-.39-.26a.44.44,0,0,0-.62,0l-.06.07-7.41,10a3.44,3.44,0,0,0-2.52.22L28,31.84l-6.47-1.49a14.1,14.1,0,0,0-3.1-.35h-1l-4.31,7.69L8.6,30h-3a5.47,5.47,0,0,0-4.13,1.92A5.61,5.61,0,0,0,0,36.23V54H22V37.44l5.52,1.45A3.64,3.64,0,0,0,28.39,39Z"/></g></g></svg>