<svg id="Layer_1" data-name="Layer 1" xmlns="http://www.w3.org/2000/svg" viewBox="0 0 64 56"><defs><style>.cls-1{fill:#faa21a;}</style></defs><title>explearn2</title><g id="Layer_2" data-name="Layer 2"><g id="Layer_1-2" data-name="Layer 1-2"><path class="cls-1" d="M46,44.69v4.39a33.15,33.15,0,0,0-8-.88,28.31,28.31,0,0,0-10,1.49V19.32a21.7,21.7,0,0,1,2.08-.64A16.39,16.39,0,0,1,29.45,15,17.4,17.4,0,0,0,26,16.2S22,14,14,14A33.09,33.09,0,0,0,2.87,15.64,1.33,1.33,0,0,0,2,16.89V20a2,2,0,0,0-2,2V52a2,2,0,0,0,2,2H20a2,2,0,0,0,2,2h8a2,2,0,0,0,2-2H50a2,2,0,0,0,2-2V29.46a16.44,16.44,0,0,1-6,1.14V44.69M14,48.2a33.65,33.65,0,0,0-8,.87V18.67a33.65,33.65,0,0,1,8-.87,28.06,28.06,0,0,1,10,1.5V49.7A28.06,28.06,0,0,0,14,48.2Zm48.83-23-4.51-4.51a14,14,0,1,0-5.66,5.66l4.51,4.51a4,4,0,1,0,5.66-5.66ZM46,23a9,9,0,1,1,9-9,9,9,0,0,1-9,9Zm-24,.21v1.08a.33.33,0,0,1-.12.24.3.3,0,0,1-.26.06A33.66,33.66,0,0,0,14,23.8a35.52,35.52,0,0,0-5.64.42.37.37,0,0,1-.25-.07A.32.32,0,0,1,8,23.91V22.83a.42.42,0,0,1,.35-.41A35.64,35.64,0,0,1,14,22a33.62,33.62,0,0,1,7.68.8A.45.45,0,0,1,22,23.21Zm0,4v1.08a.33.33,0,0,1-.12.24.3.3,0,0,1-.26.06A33.66,33.66,0,0,0,14,27.8a35.52,35.52,0,0,0-5.64.42A.32.32,0,0,1,8,28V26.83a.42.42,0,0,1,.35-.41A35.64,35.64,0,0,1,14,26a33.08,33.08,0,0,1,7.68.81A.41.41,0,0,1,22,27.21Zm0,4v1.08a.33.33,0,0,1-.12.24.3.3,0,0,1-.26.06A33.66,33.66,0,0,0,14,31.8a35.52,35.52,0,0,0-5.64.42A.32.32,0,0,1,8,32V30.83a.42.42,0,0,1,.35-.41A35.64,35.64,0,0,1,14,30a33.08,33.08,0,0,1,7.68.81A.41.41,0,0,1,22,31.21Zm0,4v1.08a.33.33,0,0,1-.12.24.3.3,0,0,1-.26.06A33.66,33.66,0,0,0,14,35.8a35.52,35.52,0,0,0-5.64.42A.32.32,0,0,1,8,36V34.83a.42.42,0,0,1,.35-.41A35.64,35.64,0,0,1,14,34a33.08,33.08,0,0,1,7.68.81A.41.41,0,0,1,22,35.21Zm0,4v1.08a.33.33,0,0,1-.12.24.3.3,0,0,1-.26.06A33.66,33.66,0,0,0,14,39.8a35.52,35.52,0,0,0-5.64.42A.32.32,0,0,1,8,40V38.83a.42.42,0,0,1,.35-.41A35.64,35.64,0,0,1,14,38a33.08,33.08,0,0,1,7.68.81A.41.41,0,0,1,22,39.21Zm0,4v1.08a.33.33,0,0,1-.12.24.3.3,0,0,1-.26.06A33.66,33.66,0,0,0,14,43.8a35.52,35.52,0,0,0-5.64.42A.32.32,0,0,1,8,44V42.83a.42.42,0,0,1,.35-.41A35.64,35.64,0,0,1,14,42a33.08,33.08,0,0,1,7.68.81A.41.41,0,0,1,22,43.21Zm8-12a.41.41,0,0,1,.32-.4A33.08,33.08,0,0,1,38,30a35.64,35.64,0,0,1,5.65.42.42.42,0,0,1,.35.41v1.08a.31.31,0,0,1-.31.31h0A35.52,35.52,0,0,0,38,31.8a33.66,33.66,0,0,0-7.62.79.3.3,0,0,1-.26-.06.33.33,0,0,1-.12-.24Zm14,4.7a.31.31,0,0,1-.31.31h0A35.52,35.52,0,0,0,38,35.8a33.66,33.66,0,0,0-7.62.79.3.3,0,0,1-.26-.06.33.33,0,0,1-.12-.24V35.21a.41.41,0,0,1,.32-.4A33.08,33.08,0,0,1,38,34a35.64,35.64,0,0,1,5.65.42.42.42,0,0,1,.35.41Zm0,4a.31.31,0,0,1-.31.31h0A35.52,35.52,0,0,0,38,39.8a33.66,33.66,0,0,0-7.62.79.3.3,0,0,1-.26-.06.33.33,0,0,1-.12-.24V39.21a.41.41,0,0,1,.32-.4A33.08,33.08,0,0,1,38,38a35.64,35.64,0,0,1,5.65.42.42.42,0,0,1,.35.41Zm-.35,2.51a.42.42,0,0,1,.35.41v1.08a.31.31,0,0,1-.31.31h0A35.52,35.52,0,0,0,38,43.8a33.66,33.66,0,0,0-7.62.79.3.3,0,0,1-.26-.06.33.33,0,0,1-.12-.24V43.21a.41.41,0,0,1,.32-.4A33.08,33.08,0,0,1,38,42,35.64,35.64,0,0,1,43.65,42.42Z"/></g></g></svg>