<svg id="Layer_1" data-name="Layer 1" xmlns="http://www.w3.org/2000/svg" viewBox="0 0 512 512"><defs><style>.cls-1{fill:#fff;}</style></defs><title>gradhat</title><g id="Layer_2" data-name="Layer 2"><g id="Layer_1-2" data-name="Layer 1-2"><path class="cls-1" d="M269.48,275.63l81.59-31.22v38c0,26.78-75.4,47.62-95.24,47.62s-95.24-21.48-95.24-47.62v-38l80.95,31.17a38.56,38.56,0,0,0,14.29,2.59h0a33,33,0,0,0,6-.58,37.87,37.87,0,0,0,7.62-2m151.44,80.11c-6.62-2.6-24.93-5.88-30.69-29.37a15.72,15.72,0,0,0-2.12-25.87V217.74l31.75-12.12a8.36,8.36,0,0,0,0-15.87L265.67,130.81a27.55,27.55,0,0,0-19.63,0L91.8,190a8.31,8.31,0,0,0,0,15.56l153.82,59.26a27.55,27.55,0,0,0,19.63,0l107-40.95V300.5a15.87,15.87,0,0,0,0,27.46c1.32,36.14,10.58,50.21,16.82,54.29C397.16,387.64,438.27,362.56,420.92,355.74Z"/></g></g></svg>