<svg id="Layer_1" data-name="Layer 1" xmlns="http://www.w3.org/2000/svg" xmlns:xlink="http://www.w3.org/1999/xlink" viewBox="0 0 512 512"><defs><style>.cls-1{fill:none;}.cls-2{clip-path:url(#clip-path);}.cls-3{fill:#fff;}</style><clipPath id="clip-path"><rect class="cls-1" width="512" height="512"/></clipPath></defs><title>stepicon4</title><g class="cls-2"><path class="cls-3" d="M437,165.5v27.85c0,15.44-9,31.11-9,31.11-9,15.66-24.36,28.28-24.36,28.28C388.27,265.35,366,274,366,274c-22.3,8.59-46.88,9.68-46.88,9.68a132.63,132.63,0,0,1-20.67,20.67A44.93,44.93,0,0,0,287,320.07c-3.15,8.37-3.15,19.47-3.15,19.47a33.67,33.67,0,0,0,6.63,19.8c6.64,8,21.21,8,21.21,8,16.32,0,29,9.9,29,9.9,12.73,9.9,12.73,24.91,12.73,24.91v13.93a7.59,7.59,0,0,1-2,5,7.82,7.82,0,0,1-5,2h-181a7.56,7.56,0,0,1-5-2,7.84,7.84,0,0,1-2-5V402.19c0-15,12.73-24.91,12.73-24.91,12.72-9.9,29-9.9,29-9.9,14.57,0,21.21-8,21.21-8,6.63-8,6.63-19.8,6.63-19.8A60.92,60.92,0,0,0,225,320.07c-3.16-8.38-11.42-15.77-11.42-15.77a133.55,133.55,0,0,1-20.67-20.67C168.33,282.54,146,274,146,274a150.64,150.64,0,0,1-37.64-21.21A117.06,117.06,0,0,1,84,224.46a69,69,0,0,1-9-31.11V165.5c0-8.7,6.09-14.79,6.09-14.79,6.09-6.09,14.79-6.09,14.79-6.09h62.66V123.73c0-14.36,10.22-24.58,10.22-24.58C179,88.92,193.35,88.92,193.35,88.92h125.3c14.36,0,24.59,10.23,24.59,10.23,10.22,10.22,10.22,24.58,10.22,24.58v20.89h62.66c8.7,0,14.79,6.09,14.79,6.09C437,156.8,437,165.5,437,165.5Zm-27.85,27.85V172.46H353.46c0,45.47-16.1,80.71-16.1,80.71a121.14,121.14,0,0,0,51.24-24.58C409.15,210.31,409.15,193.35,409.15,193.35ZM174.64,253.17c-16.1-35.24-16.1-80.71-16.1-80.71H102.85v20.89c0,17,20.55,35.24,20.55,35.24C144,246.86,174.64,253.17,174.64,253.17Z"/></g></svg>