<svg id="Layer_1" data-name="Layer 1" xmlns="http://www.w3.org/2000/svg" xmlns:xlink="http://www.w3.org/1999/xlink" viewBox="0 0 512 512"><defs><style>.cls-1{fill:none;}.cls-2{clip-path:url(#clip-path);}.cls-3{fill:#fff;}</style><clipPath id="clip-path"><rect class="cls-1" x="85" y="85" width="342" height="342"/></clipPath></defs><title>stepicon2</title><g class="cls-2"><path class="cls-3" d="M298.75,213.25h-171v21.38h171Zm32.06,191.12a73.57,73.57,0,1,1,73.56-73.56A73.72,73.72,0,0,1,330.81,404.37Zm-224.43,1.26V106.35H256v64.14h64.13v64.77A95.68,95.68,0,0,0,270.41,256H127.75v21.38H250.84a95.59,95.59,0,0,0-10.63,21.37H127.75v21.38H235.26a94.1,94.1,0,0,0-.63,10.68,96,96,0,0,0,35.79,74.82Zm171-294.84,38.35,38.34H277.35V110.79ZM341.5,235.26V144.68L281.8,85H85V427H341.5v-.63a96.15,96.15,0,0,0,0-191.11Z"/></g><g class="cls-2"><polygon class="cls-3" points="277.38 330.81 298.75 309.44 320.13 330.81 362.88 288.06 384.25 309.44 320.13 373.56 277.38 330.81"/></g></svg>