<svg id="Layer_1" data-name="Layer 1" xmlns="http://www.w3.org/2000/svg" viewBox="0 0 318.53 338.45"><defs><style>.cls-1{fill:#6d6d6d;}.cls-2{fill:#fff;}</style></defs><title>westaff</title><g id="Layer_2" data-name="Layer 2"><g id="Layer_1-2" data-name="Layer 1-2"><path class="cls-1" d="M103.54,335.84c-10.89,0-12.49-8.3-12.49-21v-.68h28c0-11.31-6.27-19.07-18-19.07-12.77,0-19.67,9.84-19.67,21.69,0,12.35,6.47,21.69,19.59,21.69,8.11,0,14.7-3.07,18.14-12l-2-.65C114.8,331.37,110.82,335.84,103.54,335.84ZM91.12,309.62c.46-6.29,2.76-12.38,9.38-12.38,7,0,8.6,5.51,8.76,11.34v2.95H91.05C91.05,311,91.08,310.21,91.12,309.62Z"/><path class="cls-1" d="M133.31,302.91c0-3.36,2.39-5.84,6.71-5.84,6.84,0,10.66,4.83,12.31,10.57h2L152,294.71a4,4,0,0,1-3.1,1.37c-2.84,0-4.59-1.18-8.94-1.18-7.45,0-13.22,4-13.22,11.39,0,15,23,11.82,23,22.62,0,4.9-3.56,7.22-8,7.22-8.25,0-13.11-5.37-14.91-13.25h-2L127.61,338a4.1,4.1,0,0,1,3.24-1.42c2.38,0,5.4,1.82,10.76,1.82,8.6,0,15.11-4.79,15.11-12.95C156.72,309.14,133.31,313.45,133.31,302.91Z"/><path class="cls-1" d="M88.82,278.75v-2.07H71.66v2.07h7.59l-2,6.89L65.37,322H65.2L51.83,285.47l-2.33-6.72H58v-2.07H31.65v2.07H39l4.31,11.64L32.34,322h-.17L19,285.64l-2.32-6.89h7.58v-2.07H0v2.07H5.86L9,286.94l18.88,51.4h1.73s11.56-33.12,15.26-43.81l16.3,43.81H63l17.08-52,2.67-7.59Z"/><path class="cls-1" d="M259.54,294.9c-6.87,0-10.27,6.16-12,11.05h-.11V294.56a8.52,8.52,0,0,1-6.39,2.2h-9.48v2.11h7.26v36.46h-7.26v2.11h22.87v-2.11h-7v-18c0-9.56,4.69-20,10.73-20a2.3,2.3,0,0,1,1,.17,4.54,4.54,0,0,0,2.85,8.08,4.71,4.71,0,0,0,4.64-4.78v-.1C266.61,297.43,264.13,294.9,259.54,294.9Z"/><path class="cls-1" d="M311.87,335.33V307c0-8.44-4.14-12.07-12.41-12.07-6.92,0-12,3.37-14.61,9.11h-.17v-9.29c-1.13.94-2.67,2-6.42,2h-8.93v2.11h6.75v36.46h-7.26v2.11h22.53v-2.11h-6.67V313.38c0-7.85,4.05-15.45,11.68-15.45,4.3,0,6.9,2.43,6.9,8.78v28.62h-6.67v2.11h21.94v-2.11Z"/><path class="cls-1" d="M180.59,335.07c-3.22,0-4.55-2-4.55-7v-29.2h10.38v-2.11H176V282.81h-1.78c-1.16,9-5.67,13.61-13.85,14.4v1.66h6.84v28.86c0,5.4,1,10.55,9.83,10.55,5.53,0,8.89-2.55,10.64-5.87l.68-1.34-1.83-.87C185.47,332.65,183.72,335.07,180.59,335.07Z"/><path class="cls-1" d="M212.66,335.84c-10.89,0-12.49-8.3-12.49-21v-.68h28c0-11.31-6.27-19.07-18-19.07-12.77,0-19.67,9.84-19.67,21.69,0,12.35,6.47,21.69,19.59,21.69,8.11,0,14.7-3.07,18.14-12l-2-.65C223.92,331.37,219.94,335.84,212.66,335.84Zm-12.42-26.22c.46-6.29,2.76-12.38,9.38-12.38,7,0,8.6,5.51,8.76,11.34v2.95H200.17C200.17,311,200.2,310.21,200.24,309.62Z"/><path class="cls-2" d="M270.43,108.88V14.25C245.93,5.6,207.5,0,164.15,0,121.64,0,83.8,5.57,59.33,14.25v96c0,14.15-.65,39.2,12.22,69.19,16,37.23,46.9,65.23,91,82.78l2.3.94,2.27-.93c44.16-17.56,75.09-45.56,91.06-82.79C271.08,149.45,270.43,122.45,270.43,108.88Z"/><path class="cls-1" d="M270.43,108.88V14.25C245.93,5.6,207.5,0,164.15,0,121.64,0,83.8,5.57,59.33,14.25v96c0,14.15-.65,39.2,12.22,69.19,16,37.23,46.9,65.23,91,82.78l2.3.94,2.27-.93c44.16-17.56,75.09-45.56,91.06-82.79C271.08,149.45,270.43,122.45,270.43,108.88ZM188,212.4a10.18,10.18,0,0,0-1.51.57c-.3.15-.47.24-.51.48a.89.89,0,0,0,.26.53c-.27,1-2.67.88-3.46,1.16a5.93,5.93,0,0,0-1.91,1.46c-.45.49-.29.37-1,.52-1.29.26-1,1.44-.61,2.38a5,5,0,0,0,1.92,2.25,6.42,6.42,0,0,0,2.41.73c-.71.77-1.71.58-2.61,1a8.23,8.23,0,0,1-1.51.61,3.93,3.93,0,0,1-1.74,0,8.38,8.38,0,0,0-2.55-.06,2.56,2.56,0,0,1-1.65-.3,5.52,5.52,0,0,0-.92-.51c-.74-.11-.15,1,0,1.36-1,.95-3.29-.37-4.2-.93s-1.21-1.6-2.13-1.9a28.05,28.05,0,0,0,0,2.9c.12,2.94.18,5.88.28,8.82,0,1.73.09,3.45.15,5.17h-3.24l.38-17c-1,.06-1.44,1-2.28,1.38-.53.23-1.07.12-1.56.43s-.72.76-1.32,1.05a4.24,4.24,0,0,1-1.69.29,2.69,2.69,0,0,1-1.84-.52,1.11,1.11,0,0,0-.43-1.5c-.51-.26-1.2.13-1.63.24-2.26.57-4.9-.82-6.95-1.59,0,0,5-.84,5-3.73a2.58,2.58,0,0,0-1-2,6.07,6.07,0,0,0-2.42-1.14c-1.24-.18-2.08.14-2.84-.16.11-.4-.56-.94-1.08-1.32a14.6,14.6,0,0,0-1.64-.8c-1-.51-2.48-1.44-2.06-2.73a2.37,2.37,0,0,0,2.28.12,1.42,1.42,0,0,0,.77-1.43c0-.91-1-1.53-1.37-2.21a3.89,3.89,0,0,0-1-1.48c-.46-.36-1.24-.48-1.26-1.17,1,.37,1.21-.47.65-1.09s-1.46-1-1.94-1.92a6,6,0,0,1-.74-2.6c0-.26,0-1,.42-1.1s.48.4.62.62a5.62,5.62,0,0,0,2.35,1.74,8.54,8.54,0,0,0,2.75,1.06c2.39.43,3.91.08,5.3-1.2a3.09,3.09,0,0,1,1.11-.67,6.7,6.7,0,0,0,3,2.36c.92.26,2,1.57,2.44,2,1.65,1.44,2.67.62,2.66-.77a20,20,0,0,0-.68-3.76c-.41-1.5-.74-3-1-4.54a8.64,8.64,0,0,0-1.2-2.89c-.42-.8-1-2.85.48-2.13a4.82,4.82,0,0,0,2.3.75c1.75-.24,2-2.16,2.31-3.59a16.73,16.73,0,0,1,.46-2.1c.15-.43.36-.67.58-.68.08.22.32.62.7.62.67,0,1.25-1.17,1.42-1.86s.26-1.27.43-1.8a23,23,0,0,1,.86-2.94c.18.66.48,1.85.64,2.25a12.78,12.78,0,0,0,1.39,3,1.44,1.44,0,0,0,2,.55h0c.41,1,.41,4.26,1.27,5.79a2,2,0,0,0,1.9,1.23,3.12,3.12,0,0,0,1.67-.51,4.61,4.61,0,0,1,1.72-.81c.2,0,.32.1.32.29a13.8,13.8,0,0,1-1.2,2.92c-.33.9-.84,1.9-1.11,2.8-.21.75-.44,1.69-.6,2.48a20.11,20.11,0,0,0-.39,3.29c-.05.83,0,2.31.64,2.75.9.62,2-.6,2.78-1.17a11.1,11.1,0,0,0,2.29-2.25c.5-.67,1.47-2.43,2.4-2.34,0,.7,1,1.69,2.48,1.92a2.92,2.92,0,0,0,2.19-.44c.69-.51.74-.48,1.53-.19,1.69.65,4.49-1.57,5.5-2.36.34.36,0,1-.41,1.68-.81,1.21-1.72,1.6-1.74,2.5s-1,2.28-.91,3.17a7.7,7.7,0,0,1-1.65,1.42c-1.24,1-2,2.26-1.55,3.91a2.76,2.76,0,0,0,2.67,2.12c1.11,0,1.83-.74,2.2-.56.22.13-.32.82-.54,1A6.81,6.81,0,0,1,188,212.4ZM251,78.46H78.87l-11-11.54,22,7.31C88,68.76,83,66.86,79.76,62.18a12.38,12.38,0,0,1-2.36-8.36,11.23,11.23,0,0,0,3.3,3.56A18.68,18.68,0,0,0,87.33,60c5.18,1.12,7.86,2.76,10.14,4.87L86.23,44.71l19.36,12.48c-.8-5.75-4.77-8.74-6.75-14.06a12.55,12.55,0,0,1-.22-8.71,11.2,11.2,0,0,0,2.31,4.26,18.41,18.41,0,0,0,5.78,4.14c4.9,2.46,7.09,4.78,8.79,7.5l-6-22.54,15.57,16.81c.62-5.66-2.44-9.56-3-15.17A12.61,12.61,0,0,1,124,20.9a11.31,11.31,0,0,0,1.19,4.7,18.31,18.31,0,0,0,4.57,5.45c4.29,3.73,5.77,6.59,6.74,9.78l-.16-23.66,10.84,20c2.12-5.08-.12-9.76.71-15.3A12.7,12.7,0,0,1,152,14.11,11,11,0,0,0,152,19a18.2,18.2,0,0,0,3,6.41c3.3,4.79,4,8,4.11,11.37h0l5.77-23.17,5.54,22.23c3.34-4.58,2.48-9.78,4.68-15A12.23,12.23,0,0,1,181,14.5a11,11,0,0,0-1.24,4.69,18.26,18.26,0,0,0,1.36,7c2,5.32,1.84,8.52,1.16,11.76l11.22-20.76L193.35,40c4.35-3.42,4.66-8.85,8.06-13.31a12.33,12.33,0,0,1,7.3-4.63,11.16,11.16,0,0,0-2.36,4.24,18.41,18.41,0,0,0-.42,7.09c.59,5.77-.34,8.88-1.87,11.91h0L220.3,27.78l-5.82,22c4.88-2.33,6.65-7,11-10.45a12.75,12.75,0,0,1,8.18-3.08,11.34,11.34,0,0,0-3.33,3.53,18.17,18.17,0,0,0-2.16,6.76c-.87,5.71-2.52,8.5-4.74,11.05l.09.07L243.6,44.71,232.53,64.54c5.4-.78,8-5.09,13.07-7.33a13,13,0,0,1,8.79-1,11.22,11.22,0,0,0-4.12,2.58,18.18,18.18,0,0,0-3.77,6c-2.26,5.28-4.53,7.56-7.3,9.47l.11.15L262,66.92Zm-89.23,48.71c-.3-.52-1.49-3.2-8.08-3.2H134.4V92.83h1.41v29.72h17.62a22.79,22.79,0,0,1,3.5.24c3.56.56,5,2,5.73,3h4.51c.67-1,2.1-2.41,5.62-3a22.53,22.53,0,0,1,3.48-.24h17.67V92.93h1.41v31H176c-6.59,0-7.69,2.71-7.92,3.2Zm2.35-5.29v1.52c-2.69-5.06-14.94-4.23-25.36-3.18V91.34c5.62,0,11.15-.82,15.47-.82,5.47,0,9.24.83,9.89,4v26c-3.34-4-13.3-3.59-23.73-2.59v.83c10.31-1,21.2-1.36,23.71,3.12Zm-21.81-11.37c1.24,0,2.54-.06,3.56-.06,1.34,0,2.45,0,3.55.06v-.59h-.57c-1.75,0-1.88-.18-1.88-1.34v-5c0-1.38.21-1.47,1.37-1.47h1.08v-.59c-1.14,0-2.34.06-3.55.06s-2.36,0-3.56-.06v.59h1.09c1.15,0,1.37.09,1.37,1.47v5c0,1.16-.14,1.34-1.89,1.34h-.57Zm12.41-6.13a4.11,4.11,0,0,1-2.29-3.49,3.7,3.7,0,0,1,3.78-3.62h.22c2.44,0,3.49,1.53,3.49,2.91s-.5,2.27-2.54,3.21c2,1,2.86,2.08,2.86,3.63,0,2.14-1.69,3.71-4.26,3.71a3.51,3.51,0,0,1-3.79-3.19v-.06a3.35,3.35,0,0,1,2.51-3.11Zm3.44,3.59c0-1.13-.53-1.86-2.89-3.29a3,3,0,0,0-1.59,2.63A2.51,2.51,0,0,0,156,110h0a2,2,0,0,0,2.14-1.86V108Zm-1.24-4.84a3.22,3.22,0,0,0,1.51-2.73,2.2,2.2,0,0,0-2-2.39h-.12a2,2,0,0,0-2,2,.65.65,0,0,0,0,.14c0,1.14.8,1.93,2.6,3Zm18.6-12.61c4.33,0,9.78.81,15.51.82v28.88c-10.41-1-22.66-1.88-25.35,3.18v-1.52c2.43-4.56,13.39-4.16,23.76-3.15v-.83c-10.46-1-20.48-1.43-23.76,2.59v-26c.63-3.13,4.38-4,9.82-4Zm-6.82,14.26h.58l.46-1.22h5.42l-5.28,10.83,1,.27,6.6-13-.16-.17h-8.1Zm13-.4a4.11,4.11,0,0,1-2.29-3.49,3.7,3.7,0,0,1,3.78-3.62h.22c2.44,0,3.49,1.53,3.49,2.91s-.51,2.27-2.55,3.21c2,1,2.87,2.08,2.87,3.63,0,2.14-1.69,3.71-4.26,3.71a3.51,3.51,0,0,1-3.79-3.19v-.06a3.36,3.36,0,0,1,2.56-3.11Zm3.44,3.59c0-1.13-.53-1.86-2.89-3.29a3,3,0,0,0-1.59,2.63A2.52,2.52,0,0,0,183,110h0a2,2,0,0,0,2.16-1.82,1.09,1.09,0,0,0,0-.18Zm-1.24-4.84a3.24,3.24,0,0,0,1.51-2.73,2.2,2.2,0,0,0-2-2.39h-.08a2,2,0,0,0-2,2,.65.65,0,0,0,0,.14c0,1.14.81,1.93,2.61,3ZM229.27,210.2l-64.4-52.5-64.41,52.5c-33.23-38.59-33-83.12-32.9-101.49V78.48h.12l97.18,79.22L262,78.48h.13v30.23C262.28,127.08,262.52,171.61,229.27,210.2ZM108.62,182a25,25,0,1,0-24.79-25.21V157A24.92,24.92,0,0,0,108.62,182Zm16.08-35.32a4.42,4.42,0,0,1-.61,2.35,9.33,9.33,0,0,1-1.49.18c-.33,0-.42.06-.63.4-.61,1-1.16,2-1.81,3.27-.14,1.47-.14,2.9-.25,4.63a4.71,4.71,0,0,1-.37,2.13,7.54,7.54,0,0,1-1.62,1.52c-.1.06-.23.24.18.11.24-.07,1.39-.65,1.64-.73.81-.26,1.74-1.26,3,0a23.34,23.34,0,0,0,2.7,1.94,5.32,5.32,0,0,1,1.19.72c.46.39.67,1.27.93,1.72a4.31,4.31,0,0,1,.76,2.19,5.73,5.73,0,0,1-2.73.06,10.33,10.33,0,0,1-.33-1.33,2.13,2.13,0,0,0-.74-1.07,15.15,15.15,0,0,0-1.38-1c-1.25-.69-1.4-.87-2.33-.41s-2.16,1.59-3.53,2.32a6.54,6.54,0,0,1-4.87-.76c.27.81,1.94,1.72,3.18,2.31a16.44,16.44,0,0,1-1.52,4.06c-.06-.32-.26-.57-.55-.57-.84,0-.68,1.79-1.48,2.71-.06-.29-.24-.58-.58-.58-.78,0-.69,1.68-1.58,2.57-.1-.37-.31-.64-.67-.64s-.67.34-1,.67c-1.06,1.14-1.56,1.79-2.57,2.86-3.41-.21-8.43-2.56-10.22-4.71,3.23-3.44,6.12-6.9,7.54-7.9.68-2,2.71-6.34,3.46-8.33-.1-.2-.2-.37-.31-.57a1.62,1.62,0,0,1-1.35.22,3.34,3.34,0,0,0,0-2.12,1.55,1.55,0,0,1-1.24.18,3.39,3.39,0,0,0,0-2.09h0a1.75,1.75,0,0,1-1.23.15,4.55,4.55,0,0,0,.15-2.4.27.27,0,0,0-.07-.21,7.49,7.49,0,0,1-3.28.51c-.31-.25,1.55-2.13,3.11-3.7a28.5,28.5,0,0,1-6.2,1.83,23.5,23.5,0,0,1-7.66.51.31.31,0,0,1,.08-.62h0a20.64,20.64,0,0,0,4.36-.4c.35-.08.9-.38-.1-.55a34.21,34.21,0,0,1-4-.83c-.35-.11-.16-.52.13-.5,1.19.1,2.6.34,3.61.38.59,0,.86-.06.41-.44a21.8,21.8,0,0,0-2-1.27.22.22,0,0,1-.09-.3.23.23,0,0,1,.16-.11c.67-.11,3.32,1.54,5.09,2a2.43,2.43,0,0,0,1.07.12c.35-.07.41-.27.38-.43-.07-.41-1.82-1.24-2.66-1.81-.36-.23,0-.5.38-.39a39.22,39.22,0,0,0,4.08,1.53c.78.1,1.06-.12,1-.34-.1-.52-3.09-1.92-3.8-2.45-.17-.13.07-.37.27-.34,1.53.19,4.5,2.25,5.81,2a.29.29,0,0,0,.3-.32c-.1-.59-2.59-1.88-3.2-2.3-.3-.2,0-.42.48-.31a17.32,17.32,0,0,1,3.17,1.34,1.65,1.65,0,0,0,1.15.21c.54-.09,1-.66.79-1.84a2.6,2.6,0,0,0-2.11-1.88c-.87-.24-.22-.64.52-.5,1.42.27,2.46.94,2.71,2.21,0,.25,0,.51.06.76,0,.69.52.45.93-.14a4,4,0,0,0,.82-2.95c-.23-1.29-2.06-1.81-2.06-2.12a.22.22,0,0,1,.21-.2,3,3,0,0,1,2.9,2.24,5.12,5.12,0,0,1-.14,2.06c0,.17.08.31.35,0a5,5,0,0,0,1.41-4.08c-.28-1.6-1.92-2.15-2-2.42,0-.07.13-.18.25-.2.67-.12,2.49,1,2.84,2.72.31,1.57-.43,4.81-5.29,7.41,2-.45,2.61-.39,2.83-.14,2.34-.63,3.84-1.11,4.45-1,.65,1-.74,1.41-.75,2.16s1.63-.48,1.35.67a2.55,2.55,0,0,1-1.85,1.24c-.37.25-1.81,1.28-2.6,1.93a44.77,44.77,0,0,1,4.9,4.23c.15.36.73,1.39,1.38,2.93v.09c.34-1,.87-2.68,1.11-3.52a6.23,6.23,0,0,1,.37-1.41c.2-.37.86-1,1.44-1.85l1.66-2.43c.5-.75,1-.6,1.89-.85a9.37,9.37,0,0,1,1.91,0Zm-18.44.11a2,2,0,0,1,.49-.38A4.17,4.17,0,0,1,108,146a.89.89,0,0,1-.19,1c-.31.35-.64.19-1,.05a1,1,0,0,0-.48-.1c-.07.05-.14-.11-.07-.19ZM196.15,157a24.83,24.83,0,1,1,24.78,25A24.83,24.83,0,0,1,196.15,157Zm36.25-17a1,1,0,0,1,.25.67,1.12,1.12,0,1,1-1.29-1.07l-1.27-2-2.18.94a1.15,1.15,0,0,1,.38.81,1.12,1.12,0,1,1-2.24.08,1.13,1.13,0,0,1,.7-1.08,9.58,9.58,0,0,0-3.41-2.2,13,13,0,0,1,1.57,6.18,15.09,15.09,0,0,1,6.71,2.19,10.64,10.64,0,0,1,4.94-4.12,10.47,10.47,0,0,0-4.16-.46Zm-7,5a4.26,4.26,0,0,1-.5-.06.46.46,0,0,1-.26-.15.69.69,0,0,0-.57-.25.94.94,0,0,0-1,.76.85.85,0,0,0,.17.63.72.72,0,0,0,.49.26,1,1,0,0,0,.42-.06h0a1.1,1.1,0,0,0,.5-.62,1,1,0,0,1,.7-.24.13.13,0,0,0,.14-.11.12.12,0,1,0-.06-.24Zm-6.73.36a.92.92,0,0,0-.07.67l.1.15a3.44,3.44,0,0,0,.08,1.53c.08.38.44.53,1.1.54a1.84,1.84,0,0,0,.06.47v.06a3.46,3.46,0,0,1-1.11.15c-1-.06-1.67-.64-1.54-1.68a1.24,1.24,0,0,1,.18-.52.14.14,0,0,0-.05-.18h0c-.37-.13-1.43.75-1.59,2a1.48,1.48,0,0,0,1.05,1.81,1.37,1.37,0,0,0,.4,0,4.72,4.72,0,0,0,2-.34c1.28-.52,2.74-.68,3.63.21a12.32,12.32,0,0,0-2.91.11c-.75.13-1.11,1.68-.28,1.73.63,0,3-.1,3.11-.07a4.54,4.54,0,0,1-3.23,2.62,10.09,10.09,0,0,0-4.7.07,14.18,14.18,0,0,1-2.7-5.85,2.37,2.37,0,0,1,.17-1.46c.47-.85,1.42-.77,1.87-1.51.25-.4.14-.87.21-1.3,0-.19.42-.85-.07-1.06a.9.9,0,0,1-1,.32,1.27,1.27,0,0,0-.9-.06c-.51.23-.62.87-1,1.3-.21.23-.49.13-.43-.24a5.86,5.86,0,0,0,.3-1.76,2.08,2.08,0,0,0-1.17-1.43,4.64,4.64,0,0,0-.87-.49c-.29-.07-.54,0-.55.17a.68.68,0,0,1,.27.51c0,.54-.59.84-.6,1.36,0,.79.54,1.51.6,1.94s-.24.31-.42.21a4,4,0,0,0-1.65-.59c-.49,0-.82.39-1.24.56-.18.08-1,.07-.81.44a1.19,1.19,0,0,1,.89.76,1.33,1.33,0,0,0,.45.75,5.26,5.26,0,0,0,2,.33.93.93,0,0,1,.76.89,2.19,2.19,0,0,1-.3,1.32,2.58,2.58,0,0,0-.39,2,.65.65,0,0,1,.56-.35c.42,0,.55.48.24,1.14a2.54,2.54,0,0,0-.17,2,.64.64,0,0,1,.57-.41c.38,0,.59.4.32,1.13a2.49,2.49,0,0,0,0,2,.63.63,0,0,1,.59-.47c.41,0,.57.41.72.76.47,1.15,1.22,1.74,3.08,1.74-.65,1.22-6,.43-8.22.18a.8.8,0,0,1-.87-.57c-.35-.86.45-1.57,0-2.48-.22-.44-.58-.55-1-.8-.17-.11-.67-.75-1-.47a.76.76,0,0,1-.27,1,1.24,1.24,0,0,0-.54.78c-.07.61.43,1.18.59,1.72.14.38-.1.54-.43.3-.52-.39-1.27-1.32-2.07-1.32-.54,0-.69.33-1.12.52-.19.09-1,.18-1,.59a.9.9,0,0,1,.79.77,1.35,1.35,0,0,0,.43.88c.73.55,1.87.31,2.55.44.26.06.3.29.05.44-.57.34-1.37.56-1.65,1.12a3.27,3.27,0,0,0-.1,1.46c0,.2-.27.84.17,1a1,1,0,0,1,1.05-.45c.34,0,.62.19.95,0,.56-.29.61-.81.91-1.28a.91.91,0,0,1,.79-.5,1,1,0,0,1,.68.23c.43.39.38,1.3,1.7,1.49a1,1,0,0,1-.1-.46.43.43,0,0,1,.38-.48h0c.3,0,.51.15.79.61a1.55,1.55,0,0,0,1.32.85,1.13,1.13,0,0,1-.12-.51.4.4,0,0,1,.35-.45h.06a.76.76,0,0,1,.68.47c.38.64.66,1,1.32,1a.58.58,0,0,1,.18-.8.66.66,0,0,1,.28-.09,10.44,10.44,0,0,1,2.72.83,8.38,8.38,0,0,0,3.89,6.61c-.08-.46.16-.72.5-.72,1,0,1.43,2.24,3.56,3.26-.11-.43.12-.7.42-.7a2.11,2.11,0,0,1,.77.25,32.25,32.25,0,0,1,4.91,3.19,20.25,20.25,0,0,0,7.31-4.71c-1.3-.4-4.89-3.09-6.14-4.38a9.33,9.33,0,0,1-2.85-6.55,5.45,5.45,0,0,1,.23-1.61,1.87,1.87,0,0,0,2.16-.2,2.51,2.51,0,0,1-.53-3,1.79,1.79,0,0,0,2.13-.15,2.46,2.46,0,0,1-.8-2.85,1.68,1.68,0,0,0,2.08,0,3.19,3.19,0,0,1-1-3.08,1.42,1.42,0,0,0,1.65.38,9.74,9.74,0,0,1-.46-2.62,9,9,0,0,0-.78-2.88,13.64,13.64,0,0,0-6.72-2.36,3.23,3.23,0,0,0-.82.1,2,2,0,0,0-1,.45c-.32.5-1.11.61-1.82.8a15.12,15.12,0,0,0-2.47.7Zm3.3,16.8h-.18a13.51,13.51,0,0,1-1.46,4.5l.94-.74.61.74.61-.74.88.74a15,15,0,0,1-1.37-4.58Zm16.57,7.09c.2-.29.45-.71.45-.71a7.49,7.49,0,0,1-1.49-4.7c.14-1.92,1.22-2.49,2.05-2.46a1.38,1.38,0,0,1,1.31,1.45h0a2.51,2.51,0,0,0,1-1.81,1.4,1.4,0,0,0-1.05-1.49,3.62,3.62,0,0,0,0-5.13,1.8,1.8,0,0,0-.2-.19c.22,2-1.3,3.43-2.65,4.74a6.2,6.2,0,0,0-1.75,5.86,11.25,11.25,0,0,1-1.44-6c.15-2.18,1.25-4.44,2.85-4.32a1.48,1.48,0,0,1,1.26.75c.76-1.28.22-2.69-1-2.8a5.37,5.37,0,0,0-2.46-6.69,5.59,5.59,0,0,1,.57,2.87c-.21,2.9-2.73,5.2-3,9.51-.28,4.66,2.31,8.71,5.09,11.8a4.34,4.34,0,0,1,.48-.76Zm-10.95-.7h-.18A13.45,13.45,0,0,1,226,173l.94-.74.61.74.61-.73.88.73a14.41,14.41,0,0,1-1.42-4.53Zm-4.32-18.88a2.19,2.19,0,0,0,.23-.91.84.84,0,0,0-.19-.57,1.78,1.78,0,0,0-1.08-.26,2.5,2.5,0,0,0-1.23.25,3.61,3.61,0,0,1-.17.46,3,3,0,0,1,2.47,1Z"/></g></g></svg>